<svg xmlns="http://www.w3.org/2000/svg" width="820" height="580" viewBox="0 0 820 580" role="img" aria-label="Bar chart of self-agreement across two retests of 79 posts">
<style>
  .t  { font: 600 17px -apple-system, BlinkMacSystemFont, 'Segoe UI', Helvetica, Arial, sans-serif; fill: #0b0b0b; }
  .s  { font: 13px -apple-system, BlinkMacSystemFont, 'Segoe UI', Helvetica, Arial, sans-serif; fill: #52514e; }
  .g  { font: 600 14px -apple-system, BlinkMacSystemFont, 'Segoe UI', Helvetica, Arial, sans-serif; fill: #0b0b0b; }
  .l  { font: 14px -apple-system, BlinkMacSystemFont, 'Segoe UI', Helvetica, Arial, sans-serif; fill: #0b0b0b; }
  .tag{ font: italic 12px -apple-system, BlinkMacSystemFont, 'Segoe UI', Helvetica, Arial, sans-serif; fill: #52514e; }
  .v  { font: 600 14px -apple-system, BlinkMacSystemFont, 'Segoe UI', Helvetica, Arial, sans-serif; fill: #0b0b0b; font-variant-numeric: tabular-nums; }
  .ax { font: 12px -apple-system, BlinkMacSystemFont, 'Segoe UI', Helvetica, Arial, sans-serif; fill: #52514e; }
  .bg { fill: #ffffff; }
  .grid { stroke: #e4e3df; stroke-width: 1; }
  .base { stroke: #b5b4ae; stroke-width: 1; }
  .planned { fill: #2a78d6; }
  .posthoc { fill: #86b6ef; }
  .retired { fill: #b5b4ae; }
  .mark { stroke: #0b0b0b; stroke-width: 2; }
  .markl { font: 600 11px -apple-system, BlinkMacSystemFont, 'Segoe UI', Helvetica, Arial, sans-serif; fill: #0b0b0b; }
  @media (prefers-color-scheme: dark) {
    .t, .g, .l, .v, .markl { fill: #ffffff; }
    .s, .tag, .ax { fill: #c3c2b7; }
    .bg { fill: #0d1117; }
    .grid { stroke: #383835; }
    .base { stroke: #6b6a66; }
    .planned { fill: #3987e5; }
    .posthoc { fill: #184f95; }
    .retired { fill: #6b6a66; }
    .mark { stroke: #ffffff; }
  }
</style>
<rect class="bg" width="820" height="580" rx="6"/>
<text class="t" x="16" y="28">How often I agreed with myself</text>
<text class="s" x="16" y="48">Same 79 posts each time. Tick = my 72/79 bar.</text>
<line class="base" x1="335.0" x2="335.0" y1="64" y2="540"/>
<text class="ax" x="335.0" y="558" text-anchor="middle">0%</text>
<line class="grid" x1="427.5" x2="427.5" y1="64" y2="540"/>
<text class="ax" x="427.5" y="558" text-anchor="middle">25%</text>
<line class="grid" x1="520.0" x2="520.0" y1="64" y2="540"/>
<text class="ax" x="520.0" y="558" text-anchor="middle">50%</text>
<line class="grid" x1="612.5" x2="612.5" y1="64" y2="540"/>
<text class="ax" x="612.5" y="558" text-anchor="middle">75%</text>
<line class="grid" x1="705.0" x2="705.0" y1="64" y2="540"/>
<text class="ax" x="705.0" y="558" text-anchor="middle">100%</text>
<text class="g" x="16" y="90.0">First retest: old labels vs. revised schema</text>
<text class="l" x="16" y="131.0">Exclusion category matched</text>
<path class="planned" d="M335.0,117.0 H616.7 Q620.7,117.0 620.7,121.0 V131.0 Q620.7,135.0 616.7,135.0 H335.0 Z"><title>Exclusion category matched: 61/79 (77%)</title></path>
<text class="v" x="804" y="131.0" text-anchor="end">61/79 · 77%</text>
<text class="l" x="16" y="175.0">Content level matched</text>
<path class="planned" d="M335.0,161.0 H599.4 Q603.4,161.0 603.4,165.0 V175.0 Q603.4,179.0 599.4,179.0 H335.0 Z"><title>Content level matched: 37/51 (73%)</title></path>
<text class="v" x="804" y="175.0" text-anchor="end">37/51 · 73%</text>
<text class="l" x="16" y="219.0">Same, where exclusion held</text>
<path class="planned" d="M335.0,205.0 H657.0 Q661.0,205.0 661.0,209.0 V219.0 Q661.0,223.0 657.0,223.0 H335.0 Z"><title>Same, where exclusion held: 37/42 (88%)</title></path>
<text class="v" x="804" y="219.0" text-anchor="end">37/42 · 88%</text>
<text class="l" x="16" y="258.0">Reply decision (old question)</text>
<path class="retired" d="M335.0,249.0 H551.1 Q555.1,249.0 555.1,253.0 V263.0 Q555.1,267.0 551.1,267.0 H335.0 Z"><title>Reply decision (old question): 47/79 (59%)</title></path>
<text class="v" x="804" y="263.0" text-anchor="end">47/79 · 59%</text>
<text class="tag" x="16" y="274.0">retired</text>
<text class="g" x="16" y="306.0">Second retest: same schema, graded twice</text>
<text class="l" x="16" y="347.0">Complete decision matched</text>
<path class="planned" d="M335.0,333.0 H630.7 Q634.7,333.0 634.7,337.0 V347.0 Q634.7,351.0 630.7,351.0 H335.0 Z"><title>Complete decision matched: 64/79 (81%)</title></path>
<text class="v" x="804" y="347.0" text-anchor="end">64/79 · 81%</text>
<line class="mark" x1="672.2" x2="672.2" y1="328.0" y2="356.0"/>
<text class="markl" x="677.2" y="332.0">my bar</text>
<text class="l" x="16" y="391.0">Counting close calls as matches</text>
<path class="planned" d="M335.0,377.0 H658.8 Q662.8,377.0 662.8,381.0 V391.0 Q662.8,395.0 658.8,395.0 H335.0 Z"><title>Counting close calls as matches: 70/79 (89%)</title></path>
<text class="v" x="804" y="391.0" text-anchor="end">70/79 · 89%</text>
<line class="mark" x1="672.2" x2="672.2" y1="372.0" y2="400.0"/>
<text class="markl" x="677.2" y="376.0">my bar</text>
<text class="l" x="16" y="435.0">Exclusion category matched</text>
<path class="planned" d="M335.0,421.0 H663.5 Q667.5,421.0 667.5,425.0 V435.0 Q667.5,439.0 663.5,439.0 H335.0 Z"><title>Exclusion category matched: 71/79 (90%)</title></path>
<text class="v" x="804" y="435.0" text-anchor="end">71/79 · 90%</text>
<text class="l" x="16" y="479.0">Substance matched (not excluded)</text>
<path class="planned" d="M335.0,465.0 H650.2 Q654.2,465.0 654.2,469.0 V479.0 Q654.2,483.0 650.2,483.0 H335.0 Z"><title>Substance matched (not excluded): 44/51 (86%)</title></path>
<text class="v" x="804" y="479.0" text-anchor="end">44/51 · 86%</text>
<text class="l" x="16" y="523.0">Final action matched</text>
<path class="planned" d="M335.0,509.0 H649.5 Q653.5,509.0 653.5,513.0 V523.0 Q653.5,527.0 649.5,527.0 H335.0 Z"><title>Final action matched: 68/79 (86%)</title></path>
<text class="v" x="804" y="523.0" text-anchor="end">68/79 · 86%</text>
</svg>
